<svg width="16" height="16" viewBox="0 0 16 16" fill="none" xmlns="http://www.w3.org/2000/svg">
<path d="M7.60547 2.76233C7.86768 2.74359 8.13147 2.74359 8.39355 2.76233L9.98047 1.81213C10.8664 2.09206 11.6813 2.56141 12.3682 3.18713L12.3369 5.04358C12.4873 5.25903 12.6189 5.4873 12.7305 5.72522L14.3496 6.62463C14.5517 7.52987 14.5534 8.46853 14.3555 9.37463L12.7305 10.275C12.6189 10.5129 12.4873 10.7412 12.3369 10.9567L12.3682 12.8121C11.6822 13.4373 10.8705 13.9088 9.9873 14.194L8.39355 13.2379C8.13147 13.2567 7.86768 13.2567 7.60547 13.2379L6.01855 14.1871C5.13257 13.9072 4.31763 13.438 3.63086 12.8121L3.66211 10.9625C3.51296 10.7442 3.38146 10.5142 3.26855 10.275L1.64941 9.37463C1.45053 8.46912 1.44876 7.53106 1.64355 6.62463L3.26855 5.72522C3.38013 5.4873 3.5116 5.25903 3.66211 5.04358L3.63086 3.18713C4.31677 2.56217 5.12862 2.09135 6.01172 1.80627L7.60547 2.76233ZM9.14746 5.22815C8.59931 5.00119 7.99588 4.94149 7.41406 5.05725C6.8322 5.17299 6.29746 5.45901 5.87793 5.87854C5.45845 6.29805 5.17335 6.83285 5.05762 7.41467C4.9419 7.9966 5.00053 8.59995 5.22754 9.14807C5.45471 9.69623 5.83972 10.1651 6.33301 10.4948C6.82636 10.8243 7.40672 10.9996 8 10.9996C8.79546 10.9995 9.55858 10.6842 10.1211 10.1217C10.6836 9.55908 11 8.79529 11 7.99963C10.9999 7.40655 10.8235 6.8268 10.4941 6.33362C10.1644 5.84027 9.69556 5.4552 9.14746 5.22815Z" fill="#FDFDFD" fill-opacity="0.8"/>
<path d="M8 4.5C8 4.5 9.44948 4.50026 10.4746 5.52539C10.475 5.52583 11.5 6.55056 11.5 8C11.5 8 11.4997 9.44948 10.4746 10.4746C10.4745 10.4747 9.4497 11.5 8 11.5C7.99932 11.5 6.55028 11.4995 5.52539 10.4746C5.52539 10.4746 4.5 9.44975 4.5 8C4.5 8 4.50026 6.55052 5.52539 5.52539C5.52539 5.52539 6.55025 4.5 8 4.5ZM8 5.5C7.99943 5.5 6.96445 5.50039 6.23242 6.23242C6.23198 6.23286 5.5 6.96478 5.5 8C5.5 8 5.50019 9.03535 6.23242 9.76758C6.23242 9.76758 6.96447 10.5 8 10.5C8 10.5 9.03535 10.4998 9.76758 9.76758C9.76762 9.76753 10.5 9.0355 10.5 8C10.5 8 10.4998 6.96465 9.76758 6.23242C9.76754 6.23238 9.03551 5.5 8 5.5Z" fill="#FDFDFD" fill-opacity="0.8"/>
<path d="M5.85938 1.33069C5.9967 1.28636 6.14677 1.30332 6.27051 1.37756L7.73145 2.25452C7.73145 2.25452 8.00066 2.24247 8.26953 2.25452L9.72461 1.38342C9.84733 1.30999 9.99644 1.29249 10.1328 1.33557C10.1594 1.34404 11.5927 1.80338 12.7061 2.81799C12.8122 2.91471 12.8716 3.05237 12.8691 3.19592L12.8408 4.89514C12.8474 4.9053 12.992 5.12756 13.1123 5.36389L14.5938 6.18811C14.7184 6.2575 14.8078 6.37703 14.8389 6.51624C14.8437 6.53824 15.1665 8.0096 14.8447 9.48206C14.8139 9.62239 14.7243 9.74252 14.5986 9.81213L13.1113 10.6364C13.1065 10.6458 12.9858 10.8825 12.8408 11.1051L12.8691 12.8043C12.8715 12.9478 12.8121 13.0856 12.7061 13.1823C12.6981 13.1895 11.5798 14.2053 10.1416 14.6696C10.0043 14.7139 9.85421 14.6969 9.73047 14.6227L8.26953 13.7457C8.26953 13.7457 8.00031 13.7578 7.73145 13.7457L6.27637 14.6168C6.15365 14.6903 6.00453 14.7078 5.86816 14.6647C5.84541 14.6574 4.40979 14.1982 3.29492 13.1823C3.18884 13.0856 3.12948 12.9478 3.13184 12.8043L3.16016 11.109C3.15599 11.1025 3.01159 10.876 2.88965 10.6364L1.40723 9.81213C1.28204 9.74247 1.19285 9.62199 1.16211 9.48206C1.15741 9.46051 0.839179 7.99108 1.15527 6.52014C1.18562 6.37895 1.27601 6.25808 1.40234 6.18811L2.88965 5.36389C2.89313 5.35707 3.01433 5.11907 3.16016 4.89514L3.13184 3.19592C3.12942 3.05236 3.1888 2.91471 3.29492 2.81799C3.29492 2.81799 4.41604 1.79663 5.85938 1.33069ZM5.95508 2.35413C5.95508 2.35413 4.95077 2.71897 4.13574 3.40979L4.16309 5.03577C4.16477 5.14072 4.13326 5.2436 4.07324 5.32971C4.07324 5.32971 3.87109 5.61848 3.72168 5.93713C3.67699 6.03244 3.6038 6.11171 3.51172 6.16272L2.08984 6.94983C2.08735 6.964 1.90458 8.00778 2.09473 9.05042L3.51172 9.8385C3.60304 9.88927 3.67703 9.9667 3.72168 10.0612C3.72168 10.0612 3.8744 10.3849 4.07617 10.6803C4.13455 10.7658 4.16483 10.8678 4.16309 10.9713L4.13574 12.5895C4.13574 12.5895 4.95199 13.2813 5.95996 13.6403L7.34961 12.8082C7.43763 12.7556 7.54026 12.7316 7.64258 12.7389C7.65204 12.7396 8.0052 12.7641 8.3584 12.7389C8.46091 12.7316 8.56324 12.7563 8.65137 12.8092L10.0459 13.6451C10.0565 13.6413 11.0545 13.2768 11.8652 12.5895L11.8379 10.9645C11.8362 10.8593 11.8675 10.7558 11.9277 10.6696C11.9324 10.6629 12.1316 10.378 12.2793 10.0631C12.324 9.96782 12.3972 9.88854 12.4893 9.83752L13.9121 9.04944C13.9166 9.02448 14.0984 7.9873 13.9062 6.95081L12.4883 6.16174C12.3967 6.11071 12.3238 6.03205 12.2793 5.93713C12.2784 5.93515 12.1286 5.61735 11.9277 5.32971C11.8677 5.24359 11.8362 5.14073 11.8379 5.03577L11.8652 3.41077C11.8652 3.41077 11.0489 2.71898 10.041 2.35999L8.65137 3.19202C8.56335 3.24469 8.46071 3.26867 8.3584 3.26135C8.35049 3.26079 7.99657 3.23605 7.64258 3.26135C7.54007 3.26869 7.43774 3.24391 7.34961 3.19104L5.95508 2.35413Z" fill="#FDFDFD" fill-opacity="0.8"/>
</svg>
