<svg width="14" height="14" viewBox="0 0 14 14" fill="none" xmlns="http://www.w3.org/2000/svg">
<path d="M12.25 5.46875C12.2503 5.55513 12.225 5.63965 12.1773 5.71166C12.1296 5.78368 12.0617 5.83997 11.982 5.87344C11.9281 5.89487 11.8706 5.906 11.8125 5.90625C11.6963 5.90576 11.5848 5.86074 11.5008 5.78047L10.1719 4.4461L8.18125 6.43672C8.09958 6.51715 7.98962 6.56231 7.875 6.5625C7.75883 6.56201 7.64726 6.51699 7.56328 6.43672C7.48146 6.3547 7.43551 6.24359 7.43551 6.12774C7.43551 6.01189 7.48146 5.90077 7.56328 5.81875L9.55391 3.82813L8.21953 2.49922C8.16018 2.43596 8.11995 2.3572 8.1035 2.27203C8.08705 2.18687 8.09504 2.09878 8.12656 2.01797C8.16003 1.93835 8.21632 1.87041 8.28834 1.82272C8.36036 1.77503 8.44488 1.74973 8.53125 1.75H11.8125C11.9285 1.75 12.0398 1.7961 12.1219 1.87814C12.2039 1.96019 12.25 2.07147 12.25 2.1875V5.46875ZM10.0625 7.4375C9.94647 7.4375 9.83519 7.4836 9.75314 7.56564C9.67109 7.64769 9.625 7.75897 9.625 7.875V11.375H2.625V4.375H6.125C6.24103 4.375 6.35231 4.32891 6.43436 4.24686C6.51641 4.16481 6.5625 4.05353 6.5625 3.9375C6.5625 3.82147 6.51641 3.71019 6.43436 3.62814C6.35231 3.5461 6.24103 3.5 6.125 3.5H2.625C2.39294 3.5 2.17038 3.59219 2.00628 3.75628C1.84219 3.92038 1.75 4.14294 1.75 4.375V11.375C1.75 11.6071 1.84219 11.8296 2.00628 11.9937C2.17038 12.1578 2.39294 12.25 2.625 12.25H9.625C9.85706 12.25 10.0796 12.1578 10.2437 11.9937C10.4078 11.8296 10.5 11.6071 10.5 11.375V7.875C10.5 7.75897 10.4539 7.64769 10.3719 7.56564C10.2898 7.4836 10.1785 7.4375 10.0625 7.4375Z" fill="#FDFDFD" fill-opacity="0.8"/>
</svg>
