<svg width="36" height="36" viewBox="0 0 36 36" fill="none" xmlns="http://www.w3.org/2000/svg">
<path d="M32.625 13.5H29.8125C29.8125 13.2016 29.694 12.9155 29.483 12.7045C29.272 12.4935 28.9859 12.375 28.6875 12.375H18.5625C18.2641 12.375 17.978 12.4935 17.767 12.7045C17.556 12.9155 17.4375 13.2016 17.4375 13.5H9V7.3125C9 6.86495 9.17779 6.43572 9.49426 6.11926C9.81072 5.80279 10.2399 5.625 10.6875 5.625C11.1351 5.625 11.5643 5.80279 11.8807 6.11926C12.1972 6.43572 12.375 6.86495 12.375 7.3125C12.375 7.61087 12.4935 7.89702 12.7045 8.10799C12.9155 8.31897 13.2016 8.4375 13.5 8.4375C13.7984 8.4375 14.0845 8.31897 14.2955 8.10799C14.5065 7.89702 14.625 7.61087 14.625 7.3125C14.625 6.26821 14.2102 5.26669 13.4717 4.52827C12.7333 3.78984 11.7318 3.375 10.6875 3.375C9.64321 3.375 8.64169 3.78984 7.90327 4.52827C7.16484 5.26669 6.75 6.26821 6.75 7.3125V13.5H3.375C2.77826 13.5 2.20597 13.7371 1.78401 14.159C1.36205 14.581 1.125 15.1533 1.125 15.75V20.25C1.125 22.3386 1.95469 24.3416 3.43153 25.8185C4.90838 27.2953 6.91142 28.125 9 28.125V30.375C9 30.6734 9.11853 30.9595 9.32951 31.1705C9.54048 31.3815 9.82663 31.5 10.125 31.5C10.4234 31.5 10.7095 31.3815 10.9205 31.1705C11.1315 30.9595 11.25 30.6734 11.25 30.375V28.125H24.75V30.375C24.75 30.6734 24.8685 30.9595 25.0795 31.1705C25.2905 31.3815 25.5766 31.5 25.875 31.5C26.1734 31.5 26.4595 31.3815 26.6705 31.1705C26.8815 30.9595 27 30.6734 27 30.375V28.125C29.0886 28.125 31.0916 27.2953 32.5685 25.8185C34.0453 24.3416 34.875 22.3386 34.875 20.25V15.75C34.875 15.1533 34.6379 14.581 34.216 14.159C33.794 13.7371 33.2217 13.5 32.625 13.5ZM27.5625 14.625V19.6875H19.6875V14.625H27.5625Z" fill="#FDFDFD" fill-opacity="0.6"/>
</svg>
