<svg width="14" height="14" viewBox="0 0 14 14" fill="none" xmlns="http://www.w3.org/2000/svg">
<path d="M12.682 4.38047C12.5579 4.24214 12.4062 4.13128 12.2366 4.055C12.0671 3.97872 11.8835 3.9387 11.6977 3.9375H8.75V3.0625C8.74856 2.48278 8.51762 1.92722 8.1077 1.5173C7.69778 1.10738 7.14222 0.876444 6.5625 0.875C6.48122 0.875659 6.40165 0.898396 6.3323 0.940779C6.26294 0.983162 6.20641 1.0436 6.16875 1.11562L4.10156 5.25H1.75C1.51794 5.25 1.29538 5.34219 1.13128 5.50628C0.967187 5.67038 0.875 5.89294 0.875 6.125V10.9375C0.875 11.1696 0.967187 11.3921 1.13128 11.5562C1.29538 11.7203 1.51794 11.8125 1.75 11.8125H11.0414C11.3606 11.8112 11.6686 11.694 11.9079 11.4828C12.1473 11.2716 12.3019 10.9807 12.343 10.6641L12.9992 5.41406C13.021 5.2292 13.0041 5.04181 12.9495 4.86385C12.8949 4.68589 12.8038 4.52127 12.682 4.38047ZM1.75 6.125H3.9375V10.9375H1.75V6.125Z" fill="#FDFDFD" fill-opacity="0.6"/>
</svg>
