<svg width="12" height="12" viewBox="0 0 12 12" fill="none" xmlns="http://www.w3.org/2000/svg">
<path d="M3.48281 4.01719C3.42301 3.94433 3.39245 3.85183 3.39708 3.75768C3.4017 3.66354 3.44118 3.57448 3.50783 3.50783C3.57448 3.44118 3.66354 3.4017 3.75768 3.39708C3.85183 3.39245 3.94433 3.42301 4.01719 3.48281L5.625 5.09531V1.125C5.625 1.02554 5.66451 0.930161 5.73484 0.859835C5.80516 0.789509 5.90054 0.75 6 0.75C6.09946 0.75 6.19484 0.789509 6.26517 0.859835C6.33549 0.930161 6.375 1.02554 6.375 1.125V5.09531L7.98281 3.48281C8.05567 3.42301 8.14817 3.39245 8.24232 3.39708C8.33646 3.4017 8.42552 3.44118 8.49217 3.50783C8.55882 3.57448 8.5983 3.66354 8.60292 3.75768C8.60755 3.85183 8.57699 3.94433 8.51719 4.01719L6.26719 6.26719C6.19551 6.33649 6.09971 6.37524 6 6.37524C5.90029 6.37524 5.80449 6.33649 5.73281 6.26719L3.48281 4.01719ZM11.25 6.375V9.375C11.25 9.57391 11.171 9.76468 11.0303 9.90533C10.8897 10.046 10.6989 10.125 10.5 10.125H1.5C1.30109 10.125 1.11032 10.046 0.96967 9.90533C0.829018 9.76468 0.75 9.57391 0.75 9.375V6.375C0.75 6.17609 0.829018 5.98532 0.96967 5.84467C1.11032 5.70402 1.30109 5.625 1.5 5.625H3.95625C3.98091 5.62421 4.00544 5.62884 4.02812 5.63856C4.05079 5.64828 4.07106 5.66285 4.0875 5.68125L5.20312 6.79688C5.41482 7.00755 5.70133 7.12582 6 7.12582C6.29867 7.12582 6.58518 7.00755 6.79688 6.79688L7.9125 5.68125C7.92894 5.66285 7.9492 5.64828 7.97188 5.63856C7.99456 5.62884 8.01909 5.62421 8.04375 5.625H10.5C10.6989 5.625 10.8897 5.70402 11.0303 5.84467C11.171 5.98532 11.25 6.17609 11.25 6.375ZM9.375 7.875C9.375 7.76375 9.34201 7.65499 9.2802 7.56249C9.21839 7.46999 9.13054 7.39789 9.02776 7.35532C8.92498 7.31274 8.81188 7.3016 8.70276 7.32331C8.59365 7.34501 8.49342 7.39859 8.41475 7.47725C8.33609 7.55592 8.28251 7.65615 8.26081 7.76526C8.2391 7.87438 8.25024 7.98748 8.29282 8.09026C8.33539 8.19304 8.40749 8.28089 8.49999 8.3427C8.59249 8.40451 8.70125 8.4375 8.8125 8.4375C8.96168 8.4375 9.10476 8.37824 9.21025 8.27275C9.31574 8.16726 9.375 8.02418 9.375 7.875Z" fill="#FDFDFD" fill-opacity="0.8"/>
</svg>
