<svg width="16" height="16" viewBox="0 0 16 16" fill="none" xmlns="http://www.w3.org/2000/svg">
<path d="M15.4558 7.8C15.437 7.75 14.9058 6.575 13.7308 5.39375C12.162 3.83125 10.1808 3 7.99955 3C5.8183 3 3.83705 3.83125 2.2683 5.39375C1.0933 6.575 0.562047 7.75 0.543297 7.8C0.515392 7.86298 0.500977 7.93111 0.500977 8C0.500977 8.06889 0.515392 8.13702 0.543297 8.2C0.562047 8.25 1.0933 9.425 2.2683 10.6062C3.83705 12.1687 5.8183 13 7.99955 13C10.1808 13 12.162 12.1687 13.7308 10.6062C14.9058 9.425 15.437 8.25 15.4558 8.2C15.4837 8.13702 15.4981 8.06889 15.4981 8C15.4981 7.93111 15.4837 7.86298 15.4558 7.8ZM7.99955 5.75C8.44455 5.75 8.87957 5.88196 9.24958 6.12919C9.61959 6.37643 9.90798 6.72783 10.0783 7.13896C10.2486 7.5501 10.2931 8.0025 10.2063 8.43895C10.1195 8.87541 9.9052 9.27632 9.59054 9.59099C9.27587 9.90566 8.87496 10.12 8.4385 10.2068C8.00204 10.2936 7.54964 10.249 7.13851 10.0787C6.72738 9.90843 6.37597 9.62004 6.12874 9.25003C5.88151 8.88002 5.74955 8.44501 5.74955 8C5.74955 7.40326 5.9866 6.83097 6.40856 6.40901C6.83051 5.98705 7.40281 5.75 7.99955 5.75Z" fill="#FDFDFD" fill-opacity="0.6"/>
</svg>
