<svg width="12" height="12" viewBox="0 0 12 12" fill="none" xmlns="http://www.w3.org/2000/svg">
<path d="M6 3C6 2.70163 6.11856 2.41553 6.3295 2.2045C6.54053 1.99356 6.82663 1.875 7.125 1.875C7.42337 1.875 7.70947 1.99356 7.9205 2.2045C8.13144 2.41553 8.25 2.70163 8.25 3V4.125H9.375C9.52295 4.12436 9.66952 4.15302 9.80621 4.20941C9.94299 4.26572 10.0673 4.34857 10.1719 4.45312C10.2764 4.55768 10.3593 4.68201 10.4156 4.81879C10.472 4.95547 10.5006 5.10205 10.5 5.25V6C10.5 7.19348 10.0259 8.33807 9.18201 9.18201C8.33807 10.0259 7.19348 10.5 6 10.5C4.80652 10.5 3.66193 10.0259 2.81799 9.18201C1.97406 8.33807 1.5 7.19348 1.5 6V4.125C1.5 3.82663 1.61856 3.54053 1.8295 3.3295C2.04053 3.11856 2.32663 3 2.625 3C2.92337 3 3.20947 3.11856 3.4205 3.3295C3.63144 3.54053 3.75 3.82663 3.75 4.125V3C3.75 2.70163 3.86856 2.41553 4.0795 2.2045C4.29053 1.99356 4.57663 1.875 4.875 1.875C5.17337 1.875 5.45947 1.99356 5.6705 2.2045C5.88144 2.41553 6 2.70163 6 3" fill="#FDFDFD" fill-opacity="0.8"/>
<path d="M4.875 1.5C4.875 1.5 5.49621 1.50011 5.93555 1.93945C5.93555 1.93945 6.375 2.37868 6.375 3V4.875C6.375 4.875 6.37489 5.49621 5.93555 5.93555C5.93555 5.93555 5.49632 6.375 4.875 6.375C4.875 6.375 4.25379 6.37489 3.81445 5.93555C3.8141 5.93519 3.375 5.49607 3.375 4.875V3C3.375 3 3.37511 2.37879 3.81445 1.93945C3.8147 1.93921 4.25385 1.5 4.875 1.5ZM4.875 2.25C4.875 2.25 4.5644 2.25006 4.34473 2.46973C4.34473 2.46973 4.125 2.68934 4.125 3V4.875C4.125 4.875 4.12506 5.1856 4.34473 5.40527C4.34496 5.40551 4.56451 5.625 4.875 5.625C4.875 5.625 5.1856 5.62494 5.40527 5.40527C5.40527 5.40527 5.625 5.18566 5.625 4.875V3C5.625 3 5.62494 2.6894 5.40527 2.46973C5.40507 2.46952 5.18552 2.25 4.875 2.25Z" fill="#1C1C1C"/>
<path d="M7.875 3V4.125C7.875 4.33211 8.04289 4.5 8.25 4.5C8.45711 4.5 8.625 4.33211 8.625 4.125V3C8.625 2.37868 8.18566 1.93934 8.18566 1.93934C7.74632 1.5 7.125 1.5 7.125 1.5C6.50368 1.5 6.06434 1.93934 6.06434 1.93934C5.62518 2.3785 5.625 2.99948 5.625 2.99948L5.625 3C5.625 3.09946 5.66451 3.19484 5.73483 3.26516C5.80516 3.33549 5.90054 3.375 6 3.375C6.20711 3.375 6.375 3.20711 6.375 3C6.375 2.68934 6.59467 2.46967 6.59467 2.46967C6.81434 2.25 7.125 2.25 7.125 2.25C7.43566 2.25 7.65533 2.46967 7.65533 2.46967C7.875 2.68934 7.875 3 7.875 3Z" fill="#1C1C1C"/>
<path d="M2.625 2.625C3.24632 2.625 3.68555 3.06445 3.68555 3.06445C4.12489 3.50379 4.125 4.125 4.125 4.125V4.875C4.125 5.49632 3.68555 5.93555 3.68555 5.93555C3.24621 6.37489 2.625 6.375 2.625 6.375C2.21592 6.375 1.88569 6.1846 1.87891 6.18066C1.90947 6.8968 2.18375 7.56429 2.18945 7.57813C2.50345 8.33618 3.08301 8.91699 3.08301 8.91699C3.6632 9.49718 4.42188 9.81055 4.42188 9.81055C5.17987 10.1245 6 10.125 6 10.125C6.81244 10.125 7.56343 9.8166 7.57813 9.81055C8.33618 9.49655 8.91699 8.91699 8.91699 8.91699C9.49718 8.3368 9.81055 7.57813 9.81055 7.57813C10.1245 6.82013 10.125 6 10.125 6V5.25C10.1256 5.10459 10.073 4.97099 10.0693 4.96191C10.0126 4.8242 9.90644 4.71894 9.90625 4.71875C9.80085 4.61335 9.66309 4.55566 9.66309 4.55566C9.52943 4.50077 9.3853 4.50001 9.37695 4.5H6.375V5.25C6.37439 5.39541 6.427 5.529 6.43066 5.53809C6.4874 5.67588 6.59369 5.78119 6.59375 5.78125C6.69915 5.88665 6.83691 5.94434 6.83691 5.94434C6.97057 5.99923 7.1147 5.99999 7.12305 6H7.875C8.08211 6 8.25 6.16789 8.25 6.375C8.25 6.58211 8.08211 6.75 7.875 6.75C7.25368 6.75 6.81445 7.18945 6.81445 7.18945C6.37511 7.62879 6.375 8.25 6.375 8.25C6.375 8.45711 6.20711 8.625 6 8.625C5.79289 8.625 5.625 8.45711 5.625 8.25C5.625 7.31831 6.28376 6.6596 6.28418 6.65918C6.33601 6.60735 6.38965 6.55957 6.38965 6.55957C6.21064 6.45959 6.0625 6.3125 6.0625 6.3125C5.85267 6.10267 5.73906 5.82846 5.7373 5.82422C5.62344 5.54768 5.625 5.25 5.625 5.25V4.5C5.625 4.18934 5.84473 3.96973 5.84473 3.96973C6.0644 3.75006 6.375 3.75 6.375 3.75H9.37305C9.67211 3.74875 9.94922 3.8623 9.94922 3.8623C10.2256 3.97614 10.4374 4.18737 10.4375 4.1875C10.6473 4.39734 10.761 4.67157 10.7627 4.67578C10.8766 4.95232 10.875 5.25 10.875 5.25V6C10.875 6.95952 10.5115 7.84672 10.5039 7.86523C10.1328 8.76112 9.44727 9.44727 9.44727 9.44727C8.76158 10.1329 7.86523 10.5039 7.86523 10.5039C6.96943 10.8749 6 10.875 6 10.875C5.04047 10.875 4.15327 10.5115 4.13477 10.5039C3.23888 10.1328 2.55273 9.44727 2.55273 9.44727C1.86705 8.76159 1.49609 7.86523 1.49609 7.86523C1.12513 6.96943 1.125 6 1.125 6V4.125C1.125 3.50385 1.56421 3.0647 1.56445 3.06445C2.00379 2.62511 2.625 2.625 2.625 2.625ZM2.625 3.375C2.625 3.375 2.3144 3.37506 2.09473 3.59473C2.09456 3.5949 1.875 3.81446 1.875 4.125V4.875C1.875 4.875 1.87506 5.1856 2.09473 5.40527C2.09473 5.40527 2.31434 5.625 2.625 5.625C2.625 5.625 2.9356 5.62494 3.15527 5.40527C3.15527 5.40527 3.375 5.18566 3.375 4.875V4.125C3.375 4.125 3.37494 3.8144 3.15527 3.59473C3.15515 3.59461 2.93557 3.375 2.625 3.375Z" fill="#1C1C1C"/>
</svg>
