<svg width="14" height="14" viewBox="0 0 14 14" fill="none" xmlns="http://www.w3.org/2000/svg">
<path d="M12.9992 8.58594L12.343 3.33594C12.3019 3.01934 12.1473 2.72841 11.9079 2.51719C11.6686 2.30597 11.3606 2.18882 11.0414 2.1875H1.75C1.51794 2.1875 1.29538 2.27969 1.13128 2.44378C0.967187 2.60788 0.875 2.83044 0.875 3.0625V7.875C0.875 8.10706 0.967187 8.32962 1.13128 8.49372C1.29538 8.65781 1.51794 8.75 1.75 8.75H4.10156L6.16875 12.8844C6.20641 12.9564 6.26294 13.0168 6.3323 13.0592C6.40165 13.1016 6.48122 13.1243 6.5625 13.125C7.14222 13.1236 7.69778 12.8926 8.1077 12.4827C8.51762 12.0728 8.74856 11.5172 8.75 10.9375V10.0625H11.6977C11.8841 10.0633 12.0685 10.0242 12.2386 9.94784C12.4087 9.87147 12.5604 9.75961 12.6837 9.61976C12.807 9.47991 12.8989 9.3153 12.9533 9.13699C13.0078 8.95868 13.0234 8.77079 12.9992 8.58594ZM3.9375 7.875H1.75V3.0625H3.9375V7.875Z" fill="#FDFDFD" fill-opacity="0.6"/>
</svg>
