<svg width="108" height="28" viewBox="0 0 108 28" fill="none" xmlns="http://www.w3.org/2000/svg">
<path d="M29.6905 23.6291H25.7705V7.62771H29.4013C29.3692 8.55952 28.7266 10.0054 27.8269 11.3228H29.6584C30.3331 9.17001 32.0361 7.14574 34.6708 7.14574C38.3016 7.14574 40.1652 9.3628 40.1652 13.09V23.6291H36.2452V13.8612C36.2452 11.5477 35.1849 10.4231 33.3534 10.4231C30.0118 10.4231 29.6905 13.6363 29.6905 16.3032V23.6291Z" fill="#FDFDFD"/>
<path d="M41.7339 15.6284C41.7339 10.5838 45.0434 7.14574 49.4774 7.14574C54.1043 7.14574 56.9961 10.6159 56.9961 15.3714C56.9961 15.8533 56.964 16.2389 56.9318 16.5924H45.6217C45.7502 19.677 47.3568 21.0265 49.5738 21.0265C51.6302 21.0265 52.7548 19.8055 53.4938 18.1347L57.0282 19.452C55.9036 22.2796 53.526 24.1111 49.5417 24.1111C44.8184 24.1111 41.7339 20.9301 41.7339 15.6284ZM45.7502 13.7005H53.044C52.9155 11.3871 51.5338 10.0697 49.4774 10.0697C47.5174 10.0697 46.0394 11.3871 45.7502 13.7005Z" fill="#FDFDFD"/>
<path d="M58.7839 23.6291V7.62771H62.4147C62.4147 9.07362 61.7078 11.0336 60.9045 12.351H62.736C63.475 9.13788 64.8567 7.33852 68.1019 7.33852C68.5196 7.33852 68.9052 7.37065 69.2907 7.43492V11.4513C68.8088 11.3549 68.2304 11.3228 67.5557 11.3228C64.1819 11.3228 62.7039 12.9294 62.7039 17.0422V23.6291H58.7839Z" fill="#FDFDFD"/>
<path d="M70.1251 5.08933V1.10504H74.3022V5.08933H70.1251ZM70.2858 23.6291V7.62771H74.1737V23.6291H70.2858Z" fill="#FDFDFD"/>
<path d="M83.156 7.14574C87.558 7.14574 89.9678 9.23427 89.9678 13.1222V19.5806C89.9678 20.3839 90.0642 20.5445 90.9317 20.5445H92.4419V23.6291H90.7711C88.1042 23.6291 87.558 22.7616 87.4616 20.2875H86.08C85.4052 22.6009 83.7665 24.1111 81.1639 24.1111C78.0793 24.1111 76.0229 22.3439 76.0229 19.5163C76.0229 17.4599 76.9226 15.9819 78.7541 15.05C80.5534 14.1182 82.9954 13.4756 86.08 13.1864V12.6402C86.08 11.0015 85.2124 10.134 83.156 10.134C80.9711 10.134 79.7823 11.1622 79.3646 12.8009L75.798 11.869C76.1515 9.45919 78.7862 7.14574 83.156 7.14574ZM80.0072 19.1307C80.0072 20.416 80.8747 21.155 82.417 21.155C84.4091 21.155 86.08 19.7734 86.08 17.0422V15.7569C82.2242 16.1746 80.0072 17.0743 80.0072 19.1307Z" fill="#FDFDFD"/>
<path d="M96.99 23.6291H93.07V1.13717H96.99V4.92867C96.99 8.27033 96.1867 9.65198 95.1264 11.3228H96.9578C96.9578 11.2907 96.99 11.2585 96.99 11.2264C97.7611 9.10575 99.3355 7.14574 101.97 7.14574C105.601 7.14574 107.465 9.3628 107.465 13.09V23.6291H103.545V13.8612C103.545 11.5477 102.484 10.4231 100.653 10.4231C97.3113 10.4231 96.99 13.6363 96.99 16.3032V23.6291Z" fill="#FDFDFD"/>
<path d="M7.90918 23.0293L11.8457 23.9043C10.4797 25.4856 8.79741 26.8723 6.87109 27.999C3.92115 26.2735 1.54112 23.9409 0 21.2266L3.54199 10.2666L7.90918 23.0293ZM6.87109 0C9.80745 1.71732 12.1791 4.03609 13.7207 6.73438L10.0723 18.0254L5.77637 4.85449L1.9707 4.00781C3.32314 2.46226 4.97987 1.10613 6.87109 0Z" fill="#FDFDFD"/>
</svg>
