<svg width="16" height="16" viewBox="0 0 16 16" fill="none" xmlns="http://www.w3.org/2000/svg">
<path d="M13.8128 10.9938C13.4441 10.3563 13.0003 9.14375 13.0003 7V6.55625C13.0003 3.7875 10.7753 1.51875 8.0378 1.5H8.0003C7.34346 1.49918 6.69291 1.62795 6.08591 1.87893C5.47891 2.12991 4.92739 2.49818 4.46294 2.96264C3.99848 3.42709 3.63021 3.97861 3.37923 4.58561C3.12825 5.19261 2.99948 5.84316 3.0003 6.5V7C3.0003 9.14375 2.55655 10.3563 2.1878 10.9938C2.09666 11.1455 2.04799 11.319 2.04689 11.496C2.04579 11.673 2.0923 11.8471 2.18155 12C2.26906 12.1529 2.39562 12.2797 2.54827 12.3676C2.70092 12.4554 2.87418 12.5011 3.0503 12.5H12.9503C13.1264 12.5011 13.2997 12.4554 13.4523 12.3676C13.605 12.2797 13.7315 12.1529 13.8191 12C13.9083 11.8471 13.9548 11.673 13.9537 11.496C13.9526 11.319 13.9039 11.1455 13.8128 10.9938Z" fill="#FDFDFD" fill-opacity="0.8"/>
<path d="M9.99408 13.5H5.99408C5.86147 13.5 5.73429 13.5527 5.64053 13.6465C5.54676 13.7402 5.49408 13.8674 5.49408 14C5.49408 14.1326 5.54676 14.2598 5.64053 14.3536C5.73429 14.4473 5.86147 14.5 5.99408 14.5H9.99408C10.1267 14.5 10.2539 14.4473 10.3476 14.3536C10.4414 14.2598 10.4941 14.1326 10.4941 14C10.4941 13.8674 10.4414 13.7402 10.3476 13.6465C10.2539 13.5527 10.1267 13.5 9.99408 13.5Z" fill="#FDFDFD" fill-opacity="0.8"/>
</svg>
