<svg width="16" height="16" viewBox="0 0 16 16" fill="none" xmlns="http://www.w3.org/2000/svg">
<path d="M14.2315 3.01881L10.9565 14.6376C10.9019 14.8343 10.788 15.0094 10.6303 15.1392C10.4727 15.2689 10.2788 15.3469 10.0753 15.3626H9.98777C9.79941 15.3621 9.61501 15.3085 9.45578 15.2079C9.29656 15.1073 9.16899 14.9638 9.08776 14.7938L6.85651 10.0813C6.83461 10.034 6.82766 9.98112 6.83659 9.92975C6.84553 9.87838 6.86992 9.83096 6.90652 9.79381L10.1128 6.58756C10.163 6.54208 10.2034 6.48688 10.2316 6.4253C10.2598 6.36373 10.2752 6.29706 10.2769 6.22935C10.2786 6.16163 10.2664 6.09429 10.2413 6.0314C10.2162 5.96851 10.1785 5.91138 10.1306 5.86349C10.0827 5.81559 10.0256 5.77793 9.96268 5.75278C9.89979 5.72763 9.83244 5.71552 9.76473 5.71719C9.69702 5.71886 9.63035 5.73427 9.56878 5.76248C9.5072 5.79069 9.45199 5.83112 9.40652 5.88131L6.20026 9.09381C6.16312 9.13041 6.1157 9.1548 6.06433 9.16374C6.01296 9.17267 5.96008 9.16572 5.91277 9.14381L1.22527 6.92506C1.0418 6.83841 0.887771 6.69986 0.782238 6.52657C0.676706 6.35327 0.624303 6.15284 0.631515 5.95006C0.642578 5.74129 0.719205 5.54132 0.850493 5.37861C0.981781 5.2159 1.16104 5.09875 1.36277 5.04381L13.0065 1.76256C13.2102 1.7044 13.427 1.71241 13.6258 1.78542C13.8247 1.85843 13.9952 1.99268 14.1128 2.16881C14.1917 2.29398 14.2431 2.4345 14.2635 2.58104C14.284 2.72759 14.2731 2.87681 14.2315 3.01881Z" fill="black"/>
</svg>
