<svg width="12" height="12" viewBox="0 0 12 12" fill="none" xmlns="http://www.w3.org/2000/svg">
<path d="M9.375 6C9.37651 6.76569 9.11505 7.50868 8.63438 8.10469L3.89531 3.36563C4.49133 2.88495 5.23431 2.6235 6 2.625C6.89473 2.62624 7.75245 2.98222 8.38512 3.61488C9.01778 4.24755 9.37376 5.10528 9.375 6ZM2.625 6C2.62624 6.89472 2.98222 7.75245 3.61489 8.38512C4.24755 9.01778 5.10528 9.37376 6 9.375C6.76569 9.3765 7.50868 9.11505 8.10469 8.63437L3.36563 3.89531C2.88495 4.49132 2.6235 5.23431 2.625 6ZM11.0625 6C11.0625 7.00127 10.7656 7.98005 10.2093 8.81257C9.65304 9.6451 8.86239 10.294 7.93734 10.6771C7.01229 11.0603 5.99439 11.1606 5.01236 10.9652C4.03033 10.7699 3.12828 10.2877 2.42027 9.57973C1.71227 8.87173 1.23011 7.96967 1.03478 6.98764C0.839439 6.00562 0.939694 4.98772 1.32286 4.06267C1.70603 3.13761 2.3549 2.34696 3.18743 1.79069C4.01995 1.23441 4.99873 0.9375 6 0.9375C7.34228 0.938741 8.62923 1.47251 9.57836 2.42164C10.5275 3.37078 11.0613 4.65772 11.0625 6ZM10.125 6C10.125 5.18415 9.88308 4.38663 9.42981 3.70827C8.97655 3.02992 8.33232 2.50121 7.57857 2.189C6.82483 1.87679 5.99543 1.7951 5.19525 1.95426C4.39508 2.11342 3.66008 2.50629 3.08319 3.08318C2.5063 3.66008 2.11343 4.39508 1.95426 5.19525C1.7951 5.99542 1.87679 6.82482 2.189 7.57857C2.50121 8.33231 3.02992 8.97655 3.70828 9.42981C4.38663 9.88307 5.18415 10.125 6 10.125C7.09364 10.1238 8.14213 9.68876 8.91545 8.91545C9.68877 8.14213 10.1238 7.09364 10.125 6Z" fill="#FDFDFD" fill-opacity="0.8"/>
</svg>
