<svg width="14" height="14" viewBox="0 0 14 14" fill="none" xmlns="http://www.w3.org/2000/svg">
<path d="M2.1875 2.3877H11.8125C11.9915 2.3877 12.1635 2.45838 12.29 2.58496C12.4166 2.71155 12.4873 2.88348 12.4873 3.0625V11.376C12.4875 11.4161 12.4776 11.4562 12.458 11.4912C12.4385 11.5261 12.4101 11.5554 12.376 11.5762L12.373 11.5771C12.3387 11.5988 12.2993 11.6112 12.2588 11.6133C12.2186 11.6153 12.1787 11.6075 12.1426 11.5898H12.1436L10.5898 10.8076L10.5 10.7627L10.4102 10.8076L8.8584 11.5889C8.82428 11.6042 8.78744 11.6123 8.75 11.6123C8.71329 11.6123 8.67712 11.6046 8.64355 11.5898L7.08984 10.8076L7 10.7627L6.91016 10.8076L5.35645 11.5898C5.32305 11.6053 5.28683 11.6133 5.25 11.6133C5.21287 11.6133 5.1762 11.6055 5.14258 11.5898H5.14355L3.58984 10.8076L3.5 10.7627L3.41016 10.8076L1.85742 11.5898C1.82132 11.6075 1.78135 11.6153 1.74121 11.6133C1.70067 11.6112 1.66132 11.5988 1.62695 11.5771L1.62402 11.5762L1.57715 11.5391C1.56343 11.5248 1.55174 11.5086 1.54199 11.4912C1.52243 11.4562 1.51246 11.4161 1.5127 11.376V3.0625C1.5127 2.88348 1.58338 2.71155 1.70996 2.58496C1.83655 2.45838 2.00848 2.3877 2.1875 2.3877ZM4.15625 6.7998C3.98718 6.79981 3.82463 6.86678 3.70508 6.98633C3.58553 7.10588 3.51855 7.26843 3.51855 7.4375C3.51855 7.60657 3.58553 7.76912 3.70508 7.88867C3.82463 8.00822 3.98718 8.07519 4.15625 8.0752H9.84375C10.0128 8.0752 10.1754 8.00822 10.2949 7.88867C10.4145 7.76912 10.4814 7.60658 10.4814 7.4375C10.4814 7.26842 10.4145 7.10588 10.2949 6.98633C10.1754 6.86678 10.0128 6.7998 9.84375 6.7998H4.15625ZM4.15625 5.0498C3.98718 5.04981 3.82463 5.11678 3.70508 5.23633C3.58553 5.35588 3.51855 5.51843 3.51855 5.6875C3.51855 5.85657 3.58553 6.01912 3.70508 6.13867C3.82463 6.25822 3.98718 6.32519 4.15625 6.3252H9.84375C10.0128 6.3252 10.1754 6.25822 10.2949 6.13867C10.4145 6.01912 10.4814 5.85658 10.4814 5.6875C10.4814 5.51842 10.4145 5.35588 10.2949 5.23633C10.1754 5.11678 10.0128 5.0498 9.84375 5.0498H4.15625Z" fill="#131313" stroke="#131313" stroke-width="0.4"/>
</svg>
