<svg width="14" height="14" viewBox="0 0 14 14" fill="none" xmlns="http://www.w3.org/2000/svg">
<path d="M7 1.5127C7.83653 1.51281 8.66282 1.70427 9.41406 2.07227C10.1651 2.44025 10.8222 2.975 11.335 3.63574C11.8478 4.29655 12.2031 5.06578 12.373 5.88477C12.543 6.70376 12.5229 7.55104 12.3154 8.36133C12.1079 9.1717 11.7176 9.92403 11.1748 10.5605C10.632 11.1971 9.95101 11.7012 9.18359 12.0342C8.41619 12.3671 7.5827 12.5199 6.74707 12.4814C5.91157 12.4429 5.09577 12.2145 4.3623 11.8125L4.29004 11.7725L4.21191 11.7949L2.57129 12.2598L2.56934 12.2607C2.45443 12.294 2.33266 12.2954 2.2168 12.2656C2.10084 12.2358 1.99486 12.1754 1.91016 12.0908C1.82545 12.0061 1.76422 11.9002 1.73438 11.7842C1.70454 11.6681 1.70684 11.5458 1.74023 11.4307V11.4297L2.20508 9.78906L2.22754 9.70996L2.18848 9.63867C1.7303 8.80304 1.4979 7.86205 1.51367 6.90918C1.52946 5.95637 1.79279 5.02407 2.27832 4.2041C2.76394 3.38408 3.45521 2.70433 4.2832 2.23242C5.11099 1.76071 6.04724 1.5127 7 1.5127Z" fill="#131313" stroke="#131313" stroke-width="0.4"/>
</svg>
