<svg width="14" height="14" viewBox="0 0 14 14" fill="none" xmlns="http://www.w3.org/2000/svg">
<path d="M9.625 1.0752C9.68799 1.0752 9.74843 1.09999 9.79297 1.14453C9.83751 1.18907 9.8623 1.24951 9.8623 1.3125V1.9502H11.375C11.554 1.9502 11.726 2.02087 11.8525 2.14746C11.9791 2.27405 12.0498 2.44598 12.0498 2.625V11.375C12.0498 11.554 11.9791 11.726 11.8525 11.8525C11.726 11.9791 11.554 12.0498 11.375 12.0498H2.625C2.44598 12.0498 2.27405 11.9791 2.14746 11.8525C2.02087 11.726 1.9502 11.554 1.9502 11.375V2.625C1.9502 2.44598 2.02087 2.27405 2.14746 2.14746C2.27405 2.02087 2.44598 1.9502 2.625 1.9502H4.1377V1.3125C4.1377 1.24951 4.16249 1.18907 4.20703 1.14453C4.24034 1.11122 4.28263 1.08925 4.32812 1.08008L4.375 1.0752C4.43799 1.0752 4.49843 1.09999 4.54297 1.14453C4.58751 1.18907 4.6123 1.24951 4.6123 1.3125V1.9502H9.3877V1.3125C9.3877 1.24951 9.41249 1.18907 9.45703 1.14453C9.49034 1.11122 9.53263 1.08925 9.57812 1.08008L9.625 1.0752ZM2.4248 4.5752H11.5752V2.4248H9.8623V3.0625C9.8623 3.12549 9.83751 3.18593 9.79297 3.23047C9.74843 3.27501 9.68799 3.2998 9.625 3.2998C9.56201 3.2998 9.50157 3.27501 9.45703 3.23047C9.41249 3.18593 9.3877 3.12549 9.3877 3.0625V2.4248H4.6123V3.0625C4.6123 3.12549 4.58751 3.18593 4.54297 3.23047C4.49843 3.27501 4.43799 3.2998 4.375 3.2998C4.31201 3.2998 4.25157 3.27501 4.20703 3.23047C4.16249 3.18593 4.1377 3.12549 4.1377 3.0625V2.4248H2.4248V4.5752Z" fill="#131313" stroke="#131313" stroke-width="0.4"/>
</svg>
