<svg width="32" height="32" viewBox="0 0 32 32" fill="none" xmlns="http://www.w3.org/2000/svg">
<path d="M28.7 28.7124C28.5133 28.8963 28.262 28.9995 28 28.9999C27.7345 28.9988 27.4795 28.8959 27.2875 28.7124L21.8875 23.2999C19.6132 25.2102 16.6893 26.1687 13.7255 25.9756C10.7617 25.7824 7.98692 24.4525 5.97982 22.2632C3.97272 20.074 2.8883 17.1943 2.95273 14.225C3.01715 11.2556 4.22545 8.42571 6.32561 6.32555C8.42577 4.22539 11.2556 3.01709 14.225 2.95267C17.1944 2.88824 20.074 3.97266 22.2633 5.97976C24.4526 7.98686 25.7825 10.7617 25.9756 13.7255C26.1688 16.6892 25.2103 19.6132 23.3 21.8874L28.7 27.2874C28.7945 27.3805 28.8695 27.4914 28.9207 27.6137C28.972 27.7361 28.9983 27.8673 28.9983 27.9999C28.9983 28.1326 28.972 28.2638 28.9207 28.3862C28.8695 28.5085 28.7945 28.6194 28.7 28.7124ZM14.5 23.9999C16.3789 23.9999 18.2157 23.4428 19.7779 22.3989C21.3402 21.355 22.5578 19.8713 23.2769 18.1354C23.9959 16.3995 24.184 14.4894 23.8175 12.6466C23.4509 10.8038 22.5461 9.11103 21.2175 7.78243C19.8889 6.45384 18.1962 5.54905 16.3534 5.18249C14.5105 4.81593 12.6004 5.00406 10.8645 5.72309C9.12862 6.44213 7.64492 7.65977 6.60105 9.22203C5.55718 10.7843 5.00001 12.621 5.00001 14.4999C5.00332 17.0185 6.00527 19.4329 7.78615 21.2138C9.56703 22.9947 11.9815 23.9966 14.5 23.9999Z" fill="#FDFDFD"/>
</svg>
