<svg width="14" height="14" viewBox="0 0 14 14" fill="none" xmlns="http://www.w3.org/2000/svg">
<path d="M12.6982 5.45233V2.82733C12.6982 2.58571 12.5024 2.38983 12.2607 2.38983C12.0191 2.38983 11.8232 2.58571 11.8232 2.82733V5.01483H9.63574C9.39412 5.01483 9.19824 5.21071 9.19824 5.45233C9.19824 5.69396 9.39412 5.88983 9.63574 5.88983H12.2607C12.5024 5.88983 12.6982 5.69396 12.6982 5.45233Z" fill="#FDFDFD"/>
<path d="M11.9516 5.76185L11.9519 5.76217C12.0339 5.84394 12.145 5.88986 12.2608 5.88986L12.2614 5.88985C12.3775 5.88968 12.4887 5.84343 12.5706 5.76126C12.6524 5.67925 12.6983 5.56816 12.6983 5.45236L12.6983 5.45171C12.6981 5.33568 12.6519 5.22447 12.5697 5.14254L12.5696 5.14241L10.7103 3.28863C9.58503 2.16243 8.02287 1.8512 8.02287 1.8512C6.46071 1.53997 4.98897 2.14923 4.98897 2.14923C3.51724 2.7585 2.63215 4.08282 2.63215 4.08282C1.74707 5.40715 1.74707 7.00001 1.74707 7.00001C1.74707 8.59287 2.63215 9.9172 2.63215 9.9172C3.51723 11.2415 4.98897 11.8508 4.98897 11.8508C6.46071 12.4601 8.02287 12.1488 8.02287 12.1488C9.5849 11.8376 10.7107 10.711 10.7107 10.711L10.7109 10.7108C10.7929 10.6288 10.8389 10.5175 10.8389 10.4016V10.4014C10.8389 10.2854 10.7927 10.1741 10.7106 10.0921C10.6286 10.0101 10.5174 9.96408 10.4014 9.96408H10.4012C10.2852 9.96412 10.1739 10.0103 10.0919 10.0923C9.15371 11.0313 7.8519 11.2907 7.8519 11.2907C6.5501 11.55 5.32366 11.0423 5.32366 11.0423C4.09721 10.5346 3.35964 9.431 3.35964 9.431C2.62207 8.3274 2.62207 7.00001 2.62207 7.00001C2.62207 5.67263 3.35964 4.56902 3.35964 4.56902C4.09721 3.46542 5.32366 2.9577 5.32366 2.9577C6.5501 2.44998 7.85191 2.70934 7.85191 2.70934C9.15371 2.9687 10.0925 3.90826 10.0925 3.90826L11.9516 5.76185Z" fill="#FDFDFD"/>
</svg>
